# Blender v2.65 (sub 0) OBJ File: ''
# www.blender.org
# texture Cube_Cube.001 no_texture
o Cube_Cube.001
v -0.500000 -0.500000 -0.500000
v 0.500000 -0.500000 -0.500000
v 0.500000 -0.500000 0.500000
v -0.500000 -0.500000 0.500000
v -0.500000 0.500000 -0.500000
v 0.500000 0.500000 -0.500000
v 0.500000 0.500000 0.500000
v -0.500000 0.500000 0.500000
vn 0.000000 -0.000000 -1.000000
vn 1.000000 -0.000000 0.000000
vn 0.000000 -0.000000 1.000000
vn -1.000000 -0.000000 0.000000
vn 0.000000 -1.000000 -0.000000
vn 0.000000 1.000000 -0.000000
s off
f 2/1/1 1/1/1 5/1/1
f 2/1/1 5/1/1 6/1/1
f 6/1/2 7/1/2 3/1/2
f 6/1/2 3/1/2 2/1/2
f 7/1/3 8/1/3 4/1/3
f 7/1/3 4/1/3 3/1/3
f 1/1/4 4/1/4 8/1/4
f 1/1/4 8/1/4 5/1/4
f 1/1/5 2/1/5 3/1/5
f 1/1/5 3/1/5 4/1/5
f 8/1/6 7/1/6 6/1/6
f 8/1/6 6/1/6 5/1/6
f 8/1/6 6/1/6 5/1/6
