# Blender v2.67 (sub 0) OBJ File: 'selectionCircle.blend'
# www.blender.org
o Circle_Circle.004
v 1.414214 0.000000 0.000000
v 1.387040 0.000000 -0.275899
v 1.306563 0.000000 -0.541196
v 1.175876 0.000000 -0.785695
v 1.000000 0.000000 -1.000000
v 0.785695 0.000000 -1.175876
v 0.541196 0.000000 -1.306563
v 0.275899 0.000000 -1.387040
v 0.000000 0.000000 -1.414214
v -0.275899 0.000000 -1.387040
v -0.541196 0.000000 -1.306563
v -0.785695 0.000000 -1.175876
v -1.000000 0.000000 -1.000000
v -1.175876 0.000000 -0.785695
v -1.306563 0.000000 -0.541196
v -1.387040 0.000000 -0.275899
v -1.414214 0.000000 0.000000
v -1.387040 0.000000 0.275900
v -1.306563 0.000000 0.541197
v -1.175875 0.000000 0.785696
v -0.999999 0.000000 1.000001
v -0.785694 0.000000 1.175876
v -0.541195 0.000000 1.306563
v -0.275898 0.000000 1.387040
v 0.000001 0.000000 1.414214
v 0.275901 0.000000 1.387040
v 0.541198 0.000000 1.306562
v 0.785696 0.000000 1.175875
v 1.000001 0.000000 0.999999
v 1.175877 0.000000 0.785693
v 1.306564 0.000000 0.541194
v 1.387040 0.000000 0.275897
v 1.555635 0.000000 0.000000
v 1.525744 0.000000 -0.303489
v 1.437219 0.000000 -0.595316
v 1.293463 0.000000 -0.864264
v 1.100000 0.000000 -1.100000
v 0.864264 0.000000 -1.293463
v 0.595316 0.000000 -1.437219
v 0.303489 0.000000 -1.525744
v 0.000000 0.000000 -1.555635
v -0.303489 0.000000 -1.525744
v -0.595316 0.000000 -1.437219
v -0.864264 0.000000 -1.293463
v -1.100000 0.000000 -1.100000
v -1.293463 0.000000 -0.864264
v -1.437219 0.000000 -0.595315
v -1.525744 0.000000 -0.303489
v -1.555635 0.000000 0.000001
v -1.525744 0.000000 0.303490
v -1.437219 0.000000 0.595316
v -1.293463 0.000000 0.864265
v -1.099999 0.000000 1.100001
v -0.864264 0.000000 1.293464
v -0.595315 0.000000 1.437220
v -0.303488 0.000000 1.525744
v 0.000001 0.000000 1.555635
v 0.303491 0.000000 1.525743
v 0.595317 0.000000 1.437219
v 0.864266 0.000000 1.293462
v 1.100001 0.000000 1.099999
v 1.293464 0.000000 0.864263
v 1.437220 0.000000 0.595314
v 1.525744 0.000000 0.303487
vt 0.954454 0.544759
vt 0.954455 0.455239
vt 0.999900 0.450763
vt 0.715263 0.902731
vt 0.789697 0.852997
vt 0.818666 0.888297
vt 0.284734 0.902730
vt 0.367439 0.936988
vt 0.263207 0.943003
vt 0.045545 0.544757
vt 0.063009 0.632557
vt 0.019310 0.645813
vt 0.210303 0.147000
vt 0.147003 0.210300
vt 0.111703 0.181330
vt 0.715266 0.097267
vt 0.632560 0.063010
vt 0.645816 0.019311
vt 0.936990 0.367440
vt 0.980689 0.354184
vt 0.852997 0.789697
vt 0.888296 0.818667
vt 0.455239 0.954453
vt 0.450763 0.999898
vt 0.097267 0.715263
vt 0.097268 0.284733
vt 0.056995 0.263206
vt 0.544761 0.045546
vt 0.549237 0.000100
vt 0.902733 0.284734
vt 0.943006 0.263208
vt 0.902732 0.715264
vt 0.943005 0.736791
vt 0.544758 0.954453
vt 0.549234 0.999898
vt 0.147001 0.789696
vt 0.111701 0.818665
vt 0.063010 0.367438
vt 0.019311 0.354182
vt 0.455241 0.045545
vt 0.450765 0.000100
vt 0.852999 0.210301
vt 0.888298 0.181332
vt 0.936990 0.632559
vt 0.980689 0.645815
vt 0.632558 0.936988
vt 0.645814 0.980687
vt 0.210301 0.852995
vt 0.181331 0.888295
vt 0.045545 0.455238
vt 0.000100 0.450762
vt 0.367442 0.063009
vt 0.284736 0.097267
vt 0.263210 0.056993
vt 0.354186 0.019310
vt 0.789699 0.147001
vt 0.818669 0.111702
vt 0.999900 0.549235
vt 0.736790 0.943004
vt 0.000100 0.549233
vt 0.181334 0.111700
vt 0.736792 0.056994
vt 0.354183 0.980687
vt 0.056993 0.736789
vn 0.000000 -1.000000 -0.000000
s off
f 23/1/1 24/2/1 56/3/1
f 18/4/1 19/5/1 51/6/1
f 13/7/1 14/8/1 45/9/1
f 8/10/1 9/11/1 41/12/1
f 3/13/1 4/14/1 36/15/1
f 29/16/1 30/17/1 62/18/1
f 24/2/1 25/19/1 57/20/1
f 19/5/1 20/21/1 52/22/1
f 14/8/1 15/23/1 47/24/1
f 9/11/1 10/25/1 41/12/1
f 4/14/1 5/26/1 37/27/1
f 30/17/1 31/28/1 63/29/1
f 25/19/1 26/30/1 58/31/1
f 20/21/1 21/32/1 53/33/1
f 15/23/1 16/34/1 48/35/1
f 10/25/1 11/36/1 43/37/1
f 5/26/1 6/38/1 38/39/1
f 31/28/1 32/40/1 64/41/1
f 26/30/1 27/42/1 59/43/1
f 21/32/1 22/44/1 54/45/1
f 16/34/1 17/46/1 49/47/1
f 11/36/1 12/48/1 44/49/1
f 6/38/1 7/50/1 39/51/1
f 1/52/1 2/53/1 34/54/1
f 32/40/1 1/52/1 33/55/1
f 27/42/1 28/56/1 60/57/1
f 22/44/1 23/1/1 55/58/1
f 17/46/1 18/4/1 50/59/1
f 12/48/1 13/7/1 45/9/1
f 7/50/1 8/10/1 40/60/1
f 2/53/1 3/13/1 35/61/1
f 28/56/1 29/16/1 61/62/1
f 55/58/1 23/1/1 56/3/1
f 50/59/1 18/4/1 51/6/1
f 14/8/1 46/63/1 45/9/1
f 40/60/1 8/10/1 41/12/1
f 35/61/1 3/13/1 36/15/1
f 61/62/1 29/16/1 62/18/1
f 56/3/1 24/2/1 57/20/1
f 51/6/1 19/5/1 52/22/1
f 46/63/1 14/8/1 47/24/1
f 10/25/1 42/64/1 41/12/1
f 36/15/1 4/14/1 37/27/1
f 62/18/1 30/17/1 63/29/1
f 57/20/1 25/19/1 58/31/1
f 52/22/1 20/21/1 53/33/1
f 47/24/1 15/23/1 48/35/1
f 42/64/1 10/25/1 43/37/1
f 37/27/1 5/26/1 38/39/1
f 63/29/1 31/28/1 64/41/1
f 58/31/1 26/30/1 59/43/1
f 53/33/1 21/32/1 54/45/1
f 48/35/1 16/34/1 49/47/1
f 43/37/1 11/36/1 44/49/1
f 38/39/1 6/38/1 39/51/1
f 33/55/1 1/52/1 34/54/1
f 64/41/1 32/40/1 33/55/1
f 59/43/1 27/42/1 60/57/1
f 54/45/1 22/44/1 55/58/1
f 49/47/1 17/46/1 50/59/1
f 44/49/1 12/48/1 45/9/1
f 39/51/1 7/50/1 40/60/1
f 34/54/1 2/53/1 35/61/1
f 60/57/1 28/56/1 61/62/1
